<?xml version="1.0" standalone="no"?>
<!DOCTYPE svg PUBLIC "-//W3C//DTD SVG 20010904//EN"
        "http://www.w3.org/TR/2001/REC-SVG-20010904/DTD/svg10.dtd">
<svg version="1.0" xmlns="http://www.w3.org/2000/svg"
     width="462.000000pt" height="218.000000pt" viewBox="0 0 462.000000 218.000000"
     preserveAspectRatio="xMidYMid meet">
    <g transform="translate(0.000000,218.000000) scale(0.100000,-0.100000)"
       fill="#000000" stroke="none">
        <path d="M900 1960 c-85 -23 -202 -78 -265 -127 -24 -18 -47 -33 -52 -33 -4 1
-41 32 -81 69 -79 75 -115 92 -141 66 -35 -35 1 -165 69 -253 19 -23 19 -24
-31 -98 -100 -149 -182 -353 -210 -523 -18 -112 -15 -337 5 -406 28 -94 64
-155 130 -220 102 -101 207 -147 388 -166 236 -26 465 37 605 164 l53 49 0
-43 c0 -60 17 -118 46 -156 36 -47 93 -46 181 3 97 54 105 75 102 277 -2 171
2 193 54 307 25 54 76 135 109 171 63 71 159 92 197 43 28 -35 27 -62 -10
-223 -26 -114 -32 -158 -33 -271 -1 -161 12 -216 63 -270 28 -29 47 -39 83
-44 63 -9 110 5 242 72 81 42 126 72 168 114 l57 58 34 -53 c70 -110 179 -172
326 -187 178 -19 293 22 423 150 l78 77 24 -42 c60 -101 177 -168 323 -185
112 -12 193 -1 275 39 173 83 298 254 298 406 0 110 -43 111 -127 3 -116 -148
-295 -223 -400 -169 -23 11 -51 32 -62 47 -30 38 -51 117 -51 192 0 64 1 66
57 136 32 39 98 115 148 170 272 298 370 429 402 535 37 125 8 243 -72 289
-36 21 -51 23 -146 20 -99 -3 -110 -6 -180 -40 -272 -134 -477 -536 -523
-1025 l-14 -143 -38 -42 c-68 -76 -118 -110 -202 -139 -86 -30 -142 -26 -194
14 -61 46 -81 93 -86 202 l-4 90 63 75 c34 41 101 117 148 169 332 362 411
486 411 643 0 84 -28 140 -86 174 -42 25 -51 26 -148 22 -95 -3 -108 -6 -182
-42 -271 -134 -490 -574 -520 -1046 l-6 -95 -102 -100 c-108 -105 -145 -131
-170 -122 -24 10 -20 51 26 229 37 146 41 176 42 288 1 112 -1 129 -22 168
-47 89 -158 137 -297 130 -112 -6 -180 -35 -261 -110 -35 -33 -64 -55 -64 -50
0 42 38 136 94 232 36 63 75 143 87 178 65 196 -56 425 -175 331 -55 -44 -215
-404 -281 -634 -42 -148 -64 -249 -81 -378 l-18 -129 -80 -83 c-69 -70 -95
-90 -176 -128 -191 -93 -373 -88 -480 11 -41 38 -55 61 -76 120 -63 183 -32
453 78 681 46 94 28 89 168 51 98 -27 256 -36 344 -21 182 32 290 155 272 310
-19 161 -118 231 -336 238 -91 2 -130 -1 -190 -17z m244 -235 c32 -30 35 -74
5 -101 -27 -24 -127 -30 -236 -14 -108 16 -115 26 -51 70 73 50 125 69 194 69
51 1 65 -3 88 -24z m2134 -7 c18 -18 14 -77 -8 -122 -11 -23 -70 -104 -132
-181 -62 -78 -124 -157 -138 -178 -30 -44 -43 -48 -34 -9 55 229 150 416 243
479 38 26 52 28 69 11z m862 -9 c27 -49 -9 -117 -157 -302 -58 -73 -117 -149
-131 -169 -26 -40 -47 -51 -38 -20 3 9 10 37 16 62 49 194 144 370 229 427 42
28 67 29 81 2z"/>
    </g>
</svg>
